# xmcd CD database file generated by Grip 2.99.0
# 
# Track frame offsets:
#       182
#       12797
#       30502
#       49667
#       67335
#       84952
#       99305
#       117460
#       136945
#       151155
# 
# Disc length: 2222 seconds
# 
# Revision: 2
# Processed by: cddbd v1.4PL0 Copyright (c) Steve Scherf et al.
# Submitted via: Grip 2.99.0
# 
DISCID=7508ac0a
DTITLE=Doris Ackermann - Thinkin! With my Heart
DYEAR=1991
DGENRE=Country
TTITLE0=Thinkin! With my heart
TTITLE1=You Can't set me on Fire
TTITLE2=Wrong or wright
TTITLE3=In Love again
TTITLE4=Go on now Go
TTITLE5=By morning Light
TTITLE6=Lonely in Love
TTITLE7=Do You
TTITLE8=Parties on Monday
TTITLE9=For Kay
EXTD=YEAR: 1991 ID3G: 2
EXTT0=
EXTT1=
EXTT2=
EXTT3=
EXTT4=
EXTT5=
EXTT6=
EXTT7=
EXTT8=
EXTT9=
PLAYORDER=
